<?xml version="1.0" standalone="no"?>
<!DOCTYPE svg PUBLIC "-//W3C//DTD SVG 20010904//EN"
 "http://www.w3.org/TR/2001/REC-SVG-20010904/DTD/svg10.dtd">
<svg version="1.0" xmlns="http://www.w3.org/2000/svg"
 width="1200.000000pt" height="1200.000000pt" viewBox="0 0 1200.000000 1200.000000"
 preserveAspectRatio="xMidYMid meet">
<metadata>
Created by potrace 1.16, written by Peter Selinger 2001-2019
</metadata>
<g transform="translate(0.000000,1200.000000) scale(0.100000,-0.100000)"
fill="#000000" stroke="none">
<path d="M5765 10244 c-649 -49 -1250 -255 -1775 -608 -821 -553 -1387 -1426
-1549 -2391 -39 -231 -46 -326 -46 -610 0 -370 29 -597 120 -940 211 -796 725
-1528 1413 -2012 486 -341 1004 -542 1622 -629 99 -14 194 -18 450 -18 256 0
351 4 450 18 618 87 1136 288 1622 629 688 484 1202 1216 1413 2012 91 343
120 570 120 940 0 284 -7 379 -46 610 -162 965 -728 1838 -1549 2391 -347 234
-723 401 -1129 504 -290 73 -505 100 -821 105 -135 1 -267 1 -295 -1z m650
-99 c1066 -128 2003 -724 2583 -1644 93 -148 249 -461 306 -616 89 -240 155
-500 197 -775 20 -127 23 -185 23 -465 0 -251 -4 -347 -17 -443 -106 -745
-395 -1375 -882 -1920 -500 -561 -1181 -953 -1913 -1101 -280 -57 -369 -65
-712 -65 -343 0 -432 8 -712 65 -719 146 -1394 529 -1885 1070 -508 559 -802
1191 -910 1951 -13 96 -17 192 -17 443 0 351 11 457 75 745 127 572 381 1086
762 1537 159 190 430 438 642 589 303 216 695 406 1059 515 197 58 526 115
766 133 113 8 509 -4 635 -19z"/>
<path d="M5840 10089 c-701 -31 -1370 -275 -1939 -707 -280 -213 -586 -541
-782 -837 -565 -858 -720 -1890 -433 -2884 153 -526 444 -1024 834 -1424 834
-858 2009 -1219 3188 -981 1224 248 2257 1201 2606 2405 97 337 139 630 139
979 0 690 -195 1337 -576 1910 -194 292 -491 611 -762 820 -91 70 -297 208
-400 267 -461 266 -1015 430 -1520 449 -77 2 -153 6 -170 7 -16 2 -100 0 -185
-4z m470 -89 c706 -64 1384 -357 1919 -829 509 -449 874 -1044 1041 -1695 36
-140 74 -357 90 -511 16 -146 16 -500 1 -650 -81 -788 -412 -1490 -969 -2054
-544 -549 -1240 -886 -2017 -977 -203 -24 -547 -24 -750 0 -725 85 -1372 381
-1914 875 -97 88 -275 283 -373 406 -388 492 -633 1105 -699 1750 -15 150 -15
504 1 650 85 808 430 1524 1005 2089 541 531 1278 875 2030 945 132 12 502 13
635 1z"/>
<path d="M4220 8250 l0 -90 175 0 175 0 0 -1530 0 -1530 -175 0 -175 0 0 -85
0 -85 665 0 665 0 0 85 0 85 -190 0 -190 0 0 725 0 725 830 0 830 0 0 -725 0
-725 -190 0 -190 0 0 -85 0 -85 665 0 665 0 0 85 0 85 -175 0 -175 0 0 1530 0
1530 175 0 175 0 0 90 0 90 -665 0 -665 0 0 -90 0 -90 190 0 190 0 0 -715 0
-715 -830 0 -830 0 0 715 0 715 190 0 190 0 0 90 0 90 -665 0 -665 0 0 -90z"/>
<path d="M5096 2470 c-146 -57 -226 -181 -226 -350 0 -132 38 -221 126 -298
146 -129 413 -99 527 58 89 125 89 342 -1 472 -35 51 -116 108 -178 126 -64
18 -191 14 -248 -8z m186 -31 c172 -47 226 -413 87 -582 -37 -45 -85 -67 -146
-67 -72 0 -129 42 -171 126 -45 89 -53 271 -17 373 42 121 140 180 247 150z"/>
<path d="M5935 2476 c-99 -31 -171 -90 -215 -176 -46 -89 -50 -235 -10 -343
24 -65 95 -144 156 -175 84 -42 203 -53 294 -26 98 29 183 105 152 136 -8 8
-21 2 -48 -22 -56 -49 -114 -71 -192 -72 -74 -1 -110 12 -154 59 -113 119
-111 425 3 535 89 85 245 68 319 -34 17 -22 30 -49 30 -60 0 -13 7 -18 25 -18
l25 0 0 100 c0 99 0 100 -24 100 -15 0 -26 -7 -29 -19 -5 -19 -7 -19 -63 4
-47 20 -76 24 -144 24 -47 0 -103 -6 -125 -13z"/>
<path d="M3300 2460 c0 -17 7 -20 40 -20 l40 0 0 -325 0 -325 -40 0 c-33 0
-40 -3 -40 -20 0 -19 7 -20 145 -20 138 0 145 1 145 20 0 17 -7 20 -40 20
l-40 0 0 155 0 155 175 0 175 0 0 -155 0 -155 -40 0 c-33 0 -40 -3 -40 -20 0
-19 7 -20 145 -20 137 0 145 1 145 19 0 16 -8 20 -37 23 l-38 3 -3 323 -2 322
40 0 c33 0 40 3 40 20 0 19 -7 20 -145 20 -138 0 -145 -1 -145 -20 0 -17 7
-20 40 -20 l40 0 0 -150 0 -150 -175 0 -175 0 0 150 0 150 40 0 c33 0 40 3 40
20 0 19 -7 20 -145 20 -138 0 -145 -1 -145 -20z"/>
<path d="M4410 2458 c-6 -13 -66 -167 -134 -343 -116 -298 -126 -320 -150
-323 -18 -2 -26 -9 -26 -23 0 -17 8 -19 95 -19 88 0 95 1 95 20 0 17 -7 20
-40 20 -22 0 -40 1 -40 3 0 1 13 36 29 77 l28 75 145 3 145 3 30 -78 31 -78
-34 -3 c-26 -2 -34 -8 -34 -23 0 -18 8 -19 135 -19 127 0 135 1 135 19 0 14
-8 21 -27 23 -25 3 -35 24 -168 343 l-141 340 -32 3 c-25 3 -34 -1 -42 -20z
m64 -310 c31 -76 56 -140 56 -143 0 -3 -54 -5 -121 -5 -66 0 -119 4 -117 9 2
4 28 74 58 154 30 81 57 141 61 134 4 -6 32 -74 63 -149z"/>
<path d="M6390 2460 c0 -17 7 -20 40 -20 l40 0 -2 -322 -3 -323 -37 -3 c-30
-3 -38 -7 -38 -23 0 -18 8 -19 145 -19 138 0 145 1 145 20 0 17 -7 20 -40 20
l-40 0 0 155 0 155 173 -2 172 -3 3 -152 3 -153 -41 0 c-33 0 -40 -3 -40 -20
0 -19 7 -20 145 -20 138 0 145 1 145 20 0 17 -7 20 -40 20 l-40 0 0 324 0 325
37 3 c27 2 39 8 41 21 3 16 -9 17 -142 17 -139 0 -146 -1 -146 -20 0 -17 7
-20 40 -20 l40 0 0 -150 0 -150 -175 0 -175 0 0 150 0 150 40 0 c33 0 40 3 40
20 0 19 -7 20 -145 20 -138 0 -145 -1 -145 -20z"/>
<path d="M7210 2460 c0 -17 7 -20 45 -20 l45 0 0 -325 0 -325 -45 0 c-38 0
-45 -3 -45 -20 0 -20 7 -20 315 -20 l315 0 0 115 c0 108 -1 115 -20 115 -13 0
-21 -9 -25 -27 -27 -137 -68 -162 -257 -163 l-98 0 0 154 0 155 43 3 c66 5
129 -7 144 -28 7 -10 13 -30 13 -46 0 -23 4 -28 25 -28 l25 0 0 125 0 125 -25
0 c-21 0 -25 -5 -25 -30 0 -53 -29 -70 -120 -70 l-80 0 0 146 0 146 134 -4
c179 -4 187 -9 212 -145 3 -15 12 -23 24 -23 19 0 20 7 20 105 l0 105 -310 0
c-303 0 -310 0 -310 -20z"/>
<path d="M7950 2460 c0 -17 7 -20 40 -20 l40 0 0 -325 0 -325 -40 0 c-33 0
-40 -3 -40 -20 0 -19 7 -20 115 -20 108 0 115 1 115 20 0 17 -7 20 -45 20
l-45 0 0 287 c0 157 2 284 5 281 3 -2 96 -139 208 -304 l204 -299 46 -3 47 -3
0 345 0 346 45 0 c38 0 45 3 45 20 0 19 -7 20 -115 20 -108 0 -115 -1 -115
-20 0 -17 7 -20 45 -20 l45 0 0 -255 c0 -140 -2 -255 -3 -255 -2 0 -86 124
-187 275 l-183 275 -114 0 c-106 0 -113 -1 -113 -20z"/>
</g>
</svg>
